<svg xmlns="http://www.w3.org/2000/svg" xmlns:xlink="http://www.w3.org/1999/xlink" version="1.1" id="Layer_1" x="0px" y="0px" width="100px" height="100px" viewBox="5.0 -10.0 100.0 135.0" enable-background="new 0 0 100 100" xml:space="preserve">
<path d="M70.066,45.737L56.689,32.359L43.315,45.735c-3.586,3.578-5.56,8.337-5.56,13.402c0,10.44,8.495,18.936,18.934,18.936  c10.441,0,18.936-8.495,18.936-18.936C75.625,54.072,73.651,49.312,70.066,45.737z M56.689,72.252  c-7.231,0-13.114-5.883-13.114-13.115c0-3.508,1.368-6.806,3.853-9.286l9.261-9.261l9.265,9.263  c2.484,2.478,3.852,5.776,3.852,9.284C69.806,66.367,63.921,72.252,56.689,72.252z M37.522,28.355l-6.113-6.113l-6.112,6.112  c-1.64,1.637-2.544,3.813-2.544,6.127c0,4.771,3.883,8.654,8.656,8.654s8.656-3.883,8.656-8.654  C40.066,32.167,39.162,29.992,37.522,28.355z M31.41,40.955c-3.569,0-6.474-2.903-6.474-6.472c0-1.731,0.675-3.358,1.904-4.584  l4.57-4.569l4.57,4.569c1.228,1.226,1.904,2.853,1.904,4.583C37.884,38.051,34.979,40.955,31.41,40.955z"/>
<text x="0.0" y="117.5" font-size="5.0" font-weight="bold" font-family="Helvetica Neue, Helvetica, Arial-Unicode, Arial, Sans-serif" fill="#000000">Created by Eugene Artsebasov</text><text x="0.0" y="122.5" font-size="5.0" font-weight="bold" font-family="Helvetica Neue, Helvetica, Arial-Unicode, Arial, Sans-serif" fill="#000000">from the Noun Project</text></svg>